PathFileType	3	(X/Y/Z)	E:\ViconData\BIOM9541 2025\Week 7\Wed1100\Stat Cal.trc
DataRate	CameraRate	NumFrames	NumMarkers	Units	OrigDataRate	OrigDataStartFrame	OrigNumFrames
200.0	200.0	8	19	mm	200.0	22	106	
Frame#	Time	C7			CLAV			RBAK			LASI			RASI			LPSI			RPSI			LTHI			LKNE			LTIB			LANK			LHEE			LTOE			RTHI			RKNE			RTIB			RANK			RHEE			RTOE			
		X1	Y1	Z1	X2	Y2	Z2	X3	Y3	Z3	X4	Y4	Z4	X5	Y5	Z5	X6	Y6	Z6	X7	Y7	Z7	X8	Y8	Z8	X9	Y9	Z9	X10	Y10	Z10	X11	Y11	Z11	X12	Y12	Z12	X13	Y13	Z13	X14	Y14	Z14	X15	Y15	Z15	X16	Y16	Z16	X17	Y17	Z17	X18	Y18	Z18	X19	Y19	Z19	
22	0.105	230.74358	1319.4333	-1007.0742	235.95726	1263.1863	-846.39825	75.218796	1240.9512	-1002.1472	349.20923	884.49622	-810.90991	96.954567	895.19006	-804.89868	262.98239	952.26978	-988.81458	189.45308	952.05396	-985.75677	393.28342	552.10327	-875.53387	379.75848	416.93472	-909.31927	396.09753	204.32179	-937.92139	377.08484	62.508858	-960.22211	324.1676	48.387474	-990.8985	377.33713	37.284668	-810.0874	37.324394	726.83423	-866.10553	50.297878	418.013	-917.85931	30.280087	320.15643	-931.48181	50.767212	72.023643	-952.12909	101.74725	49.82589	-994.73267	61.165825	39.351948	-809.66382
23	0.11	230.73483	1319.4706	-1007.037	235.96542	1263.1949	-846.35773	75.21225	1240.9921	-1002.1222	349.22485	884.47974	-810.87708	96.96933	895.17853	-804.9093	262.98492	952.31024	-988.81604	189.44	952.14404	-985.74896	393.25745	552.13715	-875.43237	379.76202	416.96335	-909.18066	396.07596	204.35428	-937.7735	377.03177	62.514797	-960.16827	324.34824	48.259483	-990.62726	377.30728	37.302509	-810.05164	37.339611	726.83081	-866.07263	50.296009	417.98792	-917.76526	30.293545	320.17505	-931.4585	51.065208	71.834381	-952.07159	101.74246	49.853405	-994.73419	61.164593	39.372559	-809.64972
24	0.115	230.73947	1319.5161	-1007.0009	235.96051	1263.1427	-846.28412	75.242149	1241.0203	-1002.0945	349.22433	884.39825	-810.87109	96.9617	895.10065	-804.90161	262.96143	952.4082	-988.81195	189.43193	952.21503	-985.74353	393.22461	552.1839	-875.19708	379.73907	417.03189	-908.98035	395.69598	204.89577	-935.38922	377.1525	62.702873	-960.30444	324.11993	48.494312	-990.84796	377.29401	37.361488	-810.06525	37.351753	726.815	-865.99219	50.290386	417.98315	-917.70612	30.594845	319.90787	-931.30524	50.733692	72.066139	-952.01038	101.72549	49.935749	-994.74963	61.151096	39.371578	-809.56531
25	0.12	230.74779	1319.5181	-1006.9742	235.9518	1263.1139	-846.22186	75.241982	1241.0487	-1002.0937	349.15897	884.35992	-810.78595	96.942543	895.08533	-804.88757	262.95425	952.45679	-988.79285	189.4202	952.27661	-985.7572	393.19135	552.23602	-874.97736	379.69818	417.04742	-908.78009	395.67151	204.93277	-935.15948	377.19788	62.79739	-960.39349	324.33051	48.435875	-990.67737	377.25684	37.37532	-809.99615	37.379368	726.79242	-865.95258	50.622066	417.64661	-917.60907	30.343485	320.17081	-931.38947	50.722725	72.089294	-951.9928	101.74131	49.970501	-994.74036	61.147079	39.359711	-809.5271
26	0.125	230.77003	1319.4988	-1006.9227	235.97421	1263.1123	-846.18964	75.269722	1240.9989	-1002.0283	349.17383	884.37341	-810.76953	96.938354	895.09229	-804.89581	262.99686	952.40417	-988.75964	189.45323	952.22571	-985.72955	393.19891	552.21246	-875.08514	379.72937	417.01208	-908.8905	395.6741	204.90681	-935.33191	377.19708	62.706127	-960.35236	324.13339	48.484409	-990.84351	377.25681	37.373737	-809.97614	37.347725	726.81512	-866.02545	50.620258	417.6236	-917.62415	30.618563	319.8696	-931.33167	50.745411	72.052986	-951.97015	101.75594	49.910839	-994.73425	61.178226	39.334305	-809.5592
27	0.13	230.78249	1319.4679	-1006.8862	235.98586	1263.0992	-846.15961	75.266617	1240.9755	-1002.0182	349.15668	884.41724	-810.76904	96.926285	895.12518	-804.87457	263.0098	952.33936	-988.72919	189.50424	952.12659	-985.70001	393.21164	552.16656	-875.1499	379.74286	417.01462	-909.02075	395.68512	204.87061	-935.47137	377.1582	62.63306	-960.30237	324.15616	48.391659	-990.83185	377.2897	37.33477	-810.01373	37.341045	726.82507	-866.09088	50.308006	417.96274	-917.76801	30.629629	319.87155	-931.39313	50.757763	72.029701	-952.06775	101.77419	49.852451	-994.72021	61.180885	39.313236	-809.61847
28	0.135	230.77739	1319.4689	-1006.8475	236.0143	1263.085	-846.13477	75.261269	1240.9519	-1001.9811	349.15817	884.41809	-810.77264	96.897583	895.13507	-804.88531	263.00763	952.34668	-988.70715	189.48341	952.12976	-985.67474	393.22366	552.18066	-875.21295	379.73434	417.01093	-909.05341	395.70413	204.8709	-935.52161	377.11002	62.55661	-960.23126	324.36166	48.28405	-990.66272	377.2937	37.331131	-810.03192	37.331474	726.81555	-866.09479	50.651043	417.6351	-917.73364	30.597689	319.88055	-931.37054	51.107647	71.785881	-952.07678	101.75357	49.853691	-994.72791	61.184963	39.331749	-809.64191
29	0.14	230.76653	1319.4694	-1006.8002	235.99953	1263.0863	-846.15442	75.263695	1240.9744	-1001.9636	349.15598	884.40643	-810.74658	96.882286	895.10443	-804.8811	262.99902	952.37952	-988.68591	189.46889	952.18701	-985.65784	393.18649	552.19629	-875.07648	379.72397	417.04706	-908.9693	395.66473	204.90285	-935.37524	377.13889	62.624344	-960.27728	324.34995	48.360092	-990.67596	377.25015	37.33992	-809.96881	37.337124	726.8161	-866.08826	50.614658	417.62888	-917.7074	30.583605	319.86002	-931.34222	50.738392	72.05706	-952.03357	101.75359	49.871269	-994.71509	61.140434	39.322285	-809.58392
